<svg width="64" height="64" viewBox="0 0 64 64" fill="none" xmlns="http://www.w3.org/2000/svg">
<circle cx="32" cy="32" r="32" fill="#008CFF" fill-opacity="0.06"/>
<g clip-path="url(#clip0)">
<path opacity="0.4" d="M44 23.9999H37C36.7348 23.9999 36.4804 23.8946 36.2929 23.707C36.1054 23.5195 36 23.2652 36 22.9999V15.9999H21.5C21.3035 15.9995 21.1089 16.0377 20.9271 16.1124C20.7454 16.1871 20.5802 16.2969 20.4409 16.4355C20.3016 16.5741 20.191 16.7388 20.1153 16.9201C20.0397 17.1015 20.0005 17.296 20 17.4924V46.4999C19.9995 46.6964 20.0377 46.8911 20.1125 47.0728C20.1872 47.2545 20.297 47.4198 20.4356 47.559C20.5742 47.6983 20.7389 47.809 20.9202 47.8846C21.1015 47.9603 21.296 47.9994 21.4925 47.9999H42.5C42.6965 48.0004 42.8912 47.9622 43.0729 47.8875C43.2546 47.8127 43.4198 47.7029 43.5591 47.5644C43.6984 47.4258 43.809 47.2611 43.8847 47.0797C43.9603 46.8984 43.9995 46.7039 44 46.5074V23.9999ZM28.5294 43.4062C27.6372 43.0566 26.8269 42.5264 26.1493 41.8488C25.4717 41.1712 24.9415 40.3609 24.5919 39.4687C22.7169 34.6337 25.6819 30.0499 30 29.1662V37.9999H38.8338C37.95 42.3181 33.3663 45.2862 28.5294 43.4062ZM32 35.9999V28.4912C32.9861 28.491 33.9626 28.6851 34.8737 29.0624C35.7848 29.4397 36.6126 29.9928 37.3099 30.6901C38.0071 31.3874 38.5602 32.2152 38.9375 33.1263C39.3148 34.0373 39.5089 35.0138 39.5088 35.9999H32Z" fill="#008CFF"/>
<path d="M43.5617 22.5625L37.4429 16.4375C37.3033 16.2983 37.1375 16.1881 36.9552 16.113C36.7729 16.0379 36.5776 15.9995 36.3804 16H35.9992V23C35.9992 23.2652 36.1045 23.5196 36.2921 23.7071C36.4796 23.8946 36.734 24 36.9992 24H43.9992V23.6188C43.9992 23.4226 43.9605 23.2283 43.8855 23.0471C43.8104 22.8659 43.7004 22.7012 43.5617 22.5625ZM29.9992 29.1663C25.681 30.05 22.7129 34.6338 24.591 39.4688C24.9406 40.361 25.4709 41.1713 26.1485 41.8489C26.826 42.5264 27.6363 43.0567 28.5285 43.4063C33.3654 45.2863 37.9492 42.3181 38.8329 38H29.9992V29.1663Z" fill="#008CFF"/>
</g>
<defs>
<clipPath id="clip0">
<rect x="20" y="16" width="24" height="32" fill="white"/>
</clipPath>
</defs>
</svg>
